<?xml version="1.0" standalone="no"?>
<!DOCTYPE svg PUBLIC "-//W3C//DTD SVG 20010904//EN"
 "http://www.w3.org/TR/2001/REC-SVG-20010904/DTD/svg10.dtd">
<svg version="1.0" xmlns="http://www.w3.org/2000/svg"
 width="158.000000pt" height="250.000000pt" viewBox="0 0 158.000000 250.000000"
 preserveAspectRatio="xMidYMid meet">

<g transform="translate(0.000000,250.000000) scale(0.100000,-0.100000)"
fill="#000000" stroke="none">
<path d="M665 2410 c-11 -5 -32 -9 -47 -9 -16 -1 -34 -11 -46 -26 -18 -22 -27
-25 -86 -25 -59 0 -67 -3 -82 -25 -9 -14 -28 -28 -43 -31 -14 -4 -34 -13 -43
-21 -9 -8 -21 -12 -27 -9 -14 9 -51 -11 -51 -28 0 -16 -45 -27 -57 -15 -5 5
-22 11 -38 13 -17 2 -38 7 -47 11 -24 10 -58 -12 -58 -38 0 -43 42 -192 60
-212 10 -11 22 -33 27 -50 5 -16 19 -34 31 -40 32 -14 67 -143 79 -289 6 -70
33 -136 58 -136 12 0 25 81 25 161 0 46 36 94 63 84 9 -4 17 -11 17 -17 0 -21
54 -58 86 -59 46 -2 51 -3 59 -11 8 -7 104 0 119 10 6 3 16 7 21 7 6 1 17 4
25 7 138 55 194 65 379 70 91 3 94 2 113 -23 19 -25 19 -33 8 -163 -10 -121
-10 -140 5 -169 10 -18 21 -79 27 -142 6 -60 14 -116 18 -123 7 -15 37 27 71
99 9 19 44 78 79 130 34 51 67 105 72 119 16 42 24 341 16 610 -1 36 2 86 6
113 9 46 8 47 -18 47 -17 0 -26 5 -26 15 0 21 -50 40 -72 26 -12 -7 -18 -6
-22 4 -3 8 -15 15 -26 15 -12 0 -29 7 -37 16 -10 10 -25 13 -41 9 -16 -4 -31
0 -43 11 -15 13 -34 17 -81 15 -34 -1 -67 -5 -72 -9 -30 -19 -74 -28 -97 -19
-13 5 -31 10 -39 11 -8 1 -23 6 -34 11 -11 5 -26 4 -38 -4 -16 -10 -27 -5 -76
33 -63 49 -88 58 -117 46z"/>
<path d="M345 1422 c-41 -5 -57 -20 -53 -51 3 -24 6 -25 47 -22 31 2 60 -4 93
-20 37 -17 51 -20 60 -11 27 27 -91 110 -147 104z"/>
<path d="M858 1387 c-83 -29 -112 -52 -97 -79 12 -22 38 -20 127 13 66 24 78
24 127 -1 47 -24 85 -26 85 -5 0 8 -16 33 -36 55 -34 37 -40 40 -88 40 -28 0
-81 -11 -118 -23z"/>
<path d="M368 1305 c-36 -20 -55 -54 -37 -66 20 -13 29 -11 29 6 0 9 12 20 26
26 30 11 43 4 26 -13 -19 -19 -14 -43 14 -72 15 -14 22 -26 17 -26 -16 0 -24
-43 -10 -52 32 -21 127 6 127 36 0 7 3 27 6 44 5 26 1 36 -27 62 -64 59 -127
79 -171 55z"/>
<path d="M845 1261 c-11 -5 -25 -6 -31 -4 -7 2 -15 0 -19 -6 -3 -6 -15 -11
-25 -11 -10 0 -26 -10 -34 -22 -15 -20 -14 -23 17 -50 26 -24 29 -31 17 -38
-11 -7 -12 -14 -5 -26 6 -9 14 -17 18 -17 3 0 31 -5 62 -12 32 -8 57 -9 61 -4
3 5 0 9 -5 9 -6 0 -11 7 -11 15 0 8 -6 15 -13 15 -7 0 -24 14 -39 30 -14 17
-22 30 -17 30 5 0 9 5 9 11 0 12 29 38 43 39 4 0 7 -13 7 -29 0 -34 25 -63 48
-59 9 2 26 18 39 36 l22 33 17 -25 c20 -31 34 -33 34 -7 0 20 -47 62 -83 74
-10 4 -15 11 -12 17 7 12 -70 12 -100 1z"/>
<path d="M1244 1006 c-20 -21 -63 -127 -58 -140 3 -8 -2 -28 -10 -45 -9 -17
-16 -34 -16 -38 0 -21 -12 -39 -32 -48 -14 -6 -24 -20 -26 -38 -2 -15 -8 -25
-13 -21 -5 3 -22 -7 -37 -23 -16 -15 -43 -41 -60 -56 l-32 -29 0 25 c0 13 7
30 15 37 21 17 19 73 -2 92 -36 30 -56 35 -146 37 -59 1 -67 3 -65 19 2 14 -6
18 -41 20 -37 3 -43 1 -33 -11 13 -15 6 -27 -16 -27 -8 0 -12 6 -9 14 4 10 -6
14 -43 15 -27 0 -52 -3 -55 -8 -3 -5 -28 -12 -56 -16 -29 -4 -61 -16 -75 -29
-23 -20 -25 -27 -25 -118 0 -95 -1 -98 -25 -104 -34 -9 -30 -18 16 -39 22 -10
41 -25 42 -34 0 -9 2 -47 3 -86 2 -76 10 -98 61 -161 18 -23 36 -53 39 -67 4
-14 13 -31 21 -38 8 -6 14 -19 14 -29 0 -28 23 -39 71 -36 42 2 51 8 116 74
39 40 79 72 88 72 9 0 24 14 33 31 9 17 38 58 65 91 26 33 47 66 47 72 0 6 22
43 50 81 27 39 55 82 61 98 6 15 14 27 19 27 4 0 13 21 20 48 6 26 17 58 23
72 6 14 11 27 11 30 1 3 4 10 7 15 4 6 12 34 19 63 6 28 16 52 21 52 5 0 9 9
9 21 0 11 7 27 15 35 16 16 20 80 7 100 -5 9 -10 9 -18 0z m-578 -326 c13 0
25 -4 28 -9 9 -14 -33 -20 -65 -9 -24 8 -27 13 -18 25 9 9 15 11 23 3 5 -5 20
-10 32 -10z m19 -75 c27 3 65 9 84 11 22 3 40 -1 52 -12 10 -9 22 -13 28 -10
9 6 31 -22 31 -38 0 -12 -111 -88 -118 -81 -4 4 -1 10 6 12 6 3 12 16 12 30 0
20 -3 24 -17 17 -10 -5 -57 -9 -105 -9 -76 0 -89 3 -102 20 -12 15 -16 17 -17
5 -1 -8 -1 -18 0 -22 0 -5 -3 -8 -7 -8 -5 0 -12 3 -16 8 -4 4 -13 7 -19 7 -7
0 -13 8 -15 18 -2 9 1 17 7 17 6 0 11 7 11 16 0 15 3 15 27 -1 25 -17 26 -17
19 0 -10 26 10 34 53 23 19 -6 58 -7 86 -3z"/>
</g>
</svg>
