<?xml version="1.0" encoding="utf-8"?>
<!-- Svg Vector Icons : http://www.onlinewebfonts.com/icon -->
<!DOCTYPE svg PUBLIC "-//W3C//DTD SVG 1.1//EN" "http://www.w3.org/Graphics/SVG/1.1/DTD/svg11.dtd">
<svg version="1.1" xmlns="http://www.w3.org/2000/svg" xmlns:xlink="http://www.w3.org/1999/xlink" x="0px" y="0px" viewBox="0 0 1000 1000" enable-background="new 0 0 1000 1000" xml:space="preserve" style="fill: #fff">
<metadata> Svg Vector Icons : http://www.onlinewebfonts.com/icon </metadata>
<g><g transform="translate(0.000000,511.000000) scale(0.100000,-0.100000)"><path d="M4398.1,3909.7c-651.3-76.6-947.1-127.7-1319.6-232c-1294-361.8-2190.1-1059.9-2392.3-1862.3c-31.9-127.7-31.9-140.5,4.2-210.7c19.2-42.6,59.6-87.3,89.4-102.2c42.6-21.3,942.9-27.7,4220.6-27.7c4499.4,0,4254.6-6.4,4314.2,104.3c53.2,100,6.4,310.7-127.7,576.8c-427.8,849.2-1630.3,1492-3213.8,1713.3C5739,3903.3,4589.7,3931,4398.1,3909.7z M3802.2,3294.6c117.1-61.7,140.5-183,51.1-272.4c-178.8-178.8-542.7,12.8-389.5,206.4C3542.5,3328.7,3683,3356.3,3802.2,3294.6z M6526.5,3294.6c242.6-125.6,19.2-429.9-236.3-323.5c-85.1,36.2-117.1,70.2-136.2,146.9c-12.8,49-2.1,72.4,59.6,134.1c61.7,61.7,89.4,74.5,161.8,74.5C6424.4,3326.5,6492.5,3311.6,6526.5,3294.6z M2440,2519.9c208.6-110.7,91.5-357.6-157.5-336.3c-183,17-274.6,170.3-176.7,289.5c34.1,40.4,140.5,85.1,206.5,87.3C2342.1,2560.3,2399.6,2543.3,2440,2519.9z M5121.8,2528.4c70.2-36.2,127.7-110.7,127.7-161.8c0-63.9-104.3-166-185.2-180.9c-95.8-17-229.9,21.3-272.4,83C4672.7,2439,4917.5,2634.8,5121.8,2528.4z M7888.7,2519.9c208.6-110.7,91.5-357.6-157.5-336.3c-85.1,8.5-117.1,23.4-166,76.6c-31.9,36.2-59.6,83-59.6,104.3c0,91.5,134.1,193.7,255.4,195.8C7790.8,2560.3,7848.2,2543.3,7888.7,2519.9z"/><path d="M1254.5,1166.2c-110.7-46.8-255.4-195.8-298-304.4c-57.5-151.1-53.2-553.4,6.4-685.3c55.3-121.3,161.8-227.7,285.2-285.2c93.6-44.7,114.9-44.7,1875.1-44.7c1726.1,0,1783.6,2.1,1826.1,40.4c25.5,23.4,51.1,76.6,57.5,119.2c57.5,355.4,483.1,504.4,732.2,255.4c51.1-51.1,91.5-119.2,108.5-174.5c44.7-166,63.8-204.3,123.4-229.9c40.4-17,436.3-21.3,1374.9-17c1500.5,6.4,1421.7-2.1,1592,187.3c119.2,132,142.6,217.1,142.6,512.9c0,208.6-6.4,257.5-51.1,349.1c-53.2,119.2-166,227.7-283.1,276.7c-48.9,21.3-146.8,31.9-283.1,31.9c-240.5,0-263.9-14.9-285.2-178.8c-27.7-221.4-183-385.2-389.5-410.8c-93.6-10.6-129.8-2.1-225.6,44.7c-146.9,70.2-225.6,178.8-246.9,340.5c-8.5,66-34.1,138.3-55.3,161.8c-38.3,42.6-59.6,42.6-1926.2,42.6c-2124.1,0-1926.2,17-1981.5-166c-31.9-112.8-157.5-229.9-263.9-251.2c-174.5-31.9-346.9,76.6-395.9,249c-51.1,178.8-8.5,168.1-730,168.1C1465.2,1196,1307.7,1189.6,1254.5,1166.2z M1710,655.4c29.8-19.2,68.1-70.2,85.1-112.8c87.3-208.6-159.6-425.7-355.4-310.7c-119.2,72.4-166,242.6-93.6,346.9C1435.4,704.4,1586.6,736.3,1710,655.4z"/><path d="M496.8-449.2c-127.7-34.1-240.5-125.6-323.5-257.5c-59.6-95.8-63.9-119.2-72.4-353.3c-10.6-381,66-549.1,300.1-666.2l110.7-55.3h4490.9c4305.7,0,4497.3,2.1,4578.1,40.4c106.4,46.8,210.7,149,272.4,266c40.4,76.6,46.8,119.2,46.8,364c0,259.7-4.3,283.1-57.5,387.4c-59.6,110.7-134.1,178.8-272.4,253.3c-72.4,38.3-187.3,40.4-2841.4,46.8c-1521.8,4.3-2801,0-2841.4-8.5c-61.7-10.6-157.5-93.6-532.1-466.1c-647-640.7-589.6-640.7-1223.8-10.6c-244.8,244.8-474.6,455.4-506.6,466.1C1535.5-408.8,626.7-415.1,496.8-449.2z"/><path d="M754.4-2092.3c-31.9-17-68.1-48.9-80.9-72.4c-31.9-59.6-25.5-585.3,8.5-715.1c72.4-276.7,291.6-553.4,536.4-683.2c263.9-140.5,55.3-134.1,3786.4-134.1c3694.9,0,3490.5-6.4,3754.5,121.3c155.4,74.5,385.2,295.8,466.1,449.1c100,189.4,132,338.4,132,638.5c0,287.3-21.3,361.8-117.1,404.4c-42.6,19.2-1038.6,25.5-4241.9,25.5C1346.1-2060.4,805.4-2064.6,754.4-2092.3z"/></g></g>
</svg>
